<?xml version="1.0" encoding="UTF-8" standalone="no"?>
<svg
   xmlns="http://www.w3.org/2000/svg"
   version="1.1"
   viewBox="0 0 400 500"
   height="500"
   width="400">
  <g id="verdance-logo">
    <!-- 圆形外框和叶子 -->
    <circle
       style="fill:#f9f9f6;stroke:#3f7a5a;stroke-width:15"
       cx="200"
       cy="200"
       r="175" />
    <!-- 叶子图案 -->
    <path
       style="fill:#3f7a5a;stroke:none"
       d="m 250,185 c -40,-45 -10,-105 45,-95 -5,55 -60,80 -100,110 -40,30 -60,80 -40,125 35,-25 60,-65 70,-100 10,-35 35,-30 25,0 -10,30 10,40 30,30 20,-10 40,-30 45,-55 5,-25 -5,-45 -20,-55 -15,-10 -35,-5 -55,0 -20,5 -25,-25 0,-30 25,-5 50,-10 60,-35 10,-25 -10,-75 -60,-60 z" />
    <!-- 水波图案 -->
    <path
       style="fill:#3f7a5a;stroke:none"
       d="m 75,300 c 35,-10 70,10 110,0 40,-10 60,20 100,10 40,-10 30,25 0,30 -30,5 -80,5 -125,0 -45,-5 -80,0 -100,-15 -5,-5 0,-20 15,-25 z" />
    <path
       style="fill:#3f7a5a;stroke:none"
       d="m 85,340 c 30,-5 65,10 105,0 40,-10 60,15 95,5 35,-10 25,25 -5,30 -30,5 -75,5 -115,0 -40,-5 -75,0 -95,-15 -5,-5 0,-15 15,-20 z" />
  </g>
  <!-- 蔚澜智越汉字 -->
  <g
     aria-label="蔚澜智越"
     id="text-cn"
     style="font-style:normal;font-weight:normal;font-size:120px;font-family:'Noto Sans CJK SC';fill:#1c2e42">
    <path
       d="m 70,423 h 18 v -42 h 50 v 42 h 18 v -80 h -18 v 22 h -50 v -22 h -18 z" />
    <path
       d="m 193,423 h 60 c 10,0 20,-15 25,-25 5,-10 5,-30 -5,-45 -10,-15 -25,-10 -35,-10 h -25 v -20 h -20 z m 20,-62 h 25 c 5,0 15,0 20,10 5,10 5,20 0,30 -5,10 -10,15 -15,15 h -30 z" />
    <path
       d="m 303,423 h 85 v -15 h -65 v -20 h 50 v -15 h -50 v -15 h 65 v -15 h -85 z" />
    <path
       d="m 415,423 h 85 v -15 h -65 v -20 h 55 v -15 h -55 v -15 h 65 v -15 h -85 z" />
  </g>
  <!-- Verdance英文 -->
  <text
     id="text-en"
     y="485"
     x="200"
     style="font-style:normal;font-weight:normal;font-size:90px;line-height:1.25;font-family:sans-serif;text-align:center;text-anchor:middle;fill:#1c2e42"
     xml:space="preserve"><tspan y="485" x="200">Verdance</tspan></text>
</svg> 