<?xml version="1.0" encoding="UTF-8" standalone="no"?>
<svg
   xmlns="http://www.w3.org/2000/svg"
   version="1.1"
   viewBox="0 0 512 512"
   height="512"
   width="512">
  <g id="verdance-logo">
    <!-- 圆形外框和叶子 -->
    <circle
       style="fill:#f9f9f6;stroke:#3f7a5a;stroke-width:20"
       cx="256"
       cy="256"
       r="225" />
    <!-- 叶子图案 -->
    <path
       style="fill:#3f7a5a;stroke:none"
       d="m 320,240 c -50,-60 -15,-135 60,-125 -5,70 -80,100 -130,140 -50,40 -75,100 -50,160 45,-30 75,-85 90,-130 15,-45 45,-40 30,0 -15,40 15,55 40,40 25,-15 50,-40 60,-70 10,-30 -5,-60 -25,-70 -20,-10 -45,-5 -70,0 -25,5 -30,-30 0,-40 30,-10 65,-15 75,-45 10,-30 -15,-95 -80,-80 z" />
    <!-- 水波图案 -->
    <path
       style="fill:#3f7a5a;stroke:none"
       d="m 95,380 c 45,-15 90,15 140,0 50,-15 75,25 130,15 55,-10 40,30 0,40 -40,10 -100,10 -160,0 -60,-10 -100,0 -130,-20 -10,-10 0,-25 20,-35 z" />
    <path
       style="fill:#3f7a5a;stroke:none"
       d="m 105,435 c 40,-10 85,15 135,0 50,-15 75,20 125,10 50,-10 35,30 -5,40 -40,10 -95,10 -150,0 -55,-10 -95,0 -125,-20 -5,-5 0,-20 20,-30 z" />
  </g>
</svg> 